<svg width="10" height="10" viewBox="0 0 10 10" fill="none" xmlns="http://www.w3.org/2000/svg">
<path d="M5 0.125C4.03582 0.125 3.09329 0.410914 2.2916 0.946586C1.48991 1.48226 0.865067 2.24363 0.496089 3.13442C0.127112 4.02521 0.030571 5.00541 0.218674 5.95107C0.406777 6.89672 0.871076 7.76536 1.55286 8.44715C2.23464 9.12893 3.10328 9.59323 4.04894 9.78133C4.99459 9.96943 5.97479 9.87289 6.86558 9.50391C7.75637 9.13494 8.51775 8.51009 9.05342 7.7084C9.58909 6.90671 9.875 5.96418 9.875 5C9.87354 3.70752 9.35946 2.46839 8.44553 1.55447C7.53161 0.640549 6.29248 0.126464 5 0.125ZM4.9063 2.375C5.01755 2.375 5.1263 2.40799 5.21881 2.4698C5.31131 2.53161 5.38341 2.61946 5.42598 2.72224C5.46856 2.82502 5.4797 2.93812 5.45799 3.04724C5.43629 3.15635 5.38271 3.25658 5.30405 3.33525C5.22538 3.41391 5.12515 3.46749 5.01604 3.48919C4.90692 3.5109 4.79382 3.49976 4.69104 3.45718C4.58826 3.41461 4.50041 3.34251 4.4386 3.25001C4.37679 3.15751 4.3438 3.04875 4.3438 2.9375C4.3438 2.78832 4.40306 2.64524 4.50855 2.53975C4.61404 2.43426 4.75711 2.375 4.9063 2.375ZM5.37505 7.625H5.00005C4.90059 7.625 4.80521 7.58549 4.73488 7.51517C4.66456 7.44484 4.62505 7.34946 4.62505 7.25V5C4.52559 5 4.43021 4.96049 4.35988 4.89016C4.28956 4.81984 4.25005 4.72446 4.25005 4.625C4.25005 4.52554 4.28956 4.43016 4.35988 4.35984C4.43021 4.28951 4.52559 4.25 4.62505 4.25H5.00005C5.09951 4.25 5.19489 4.28951 5.26521 4.35984C5.33554 4.43016 5.37505 4.52554 5.37505 4.625V6.875C5.47451 6.875 5.56989 6.91451 5.64021 6.98483C5.71054 7.05516 5.75005 7.15054 5.75005 7.25C5.75005 7.34946 5.71054 7.44484 5.64021 7.51517C5.56989 7.58549 5.47451 7.625 5.37505 7.625Z" fill="#857E7F"/>
</svg>
